<svg width="15" height="10" viewBox="0 0 15 10" fill="none" xmlns="http://www.w3.org/2000/svg">
<path fill-rule="evenodd" clip-rule="evenodd" d="M13.9185 0.293C14.1059 0.480528 14.2113 0.734836 14.2113 1C14.2113 1.26516 14.1059 1.51947 13.9185 1.707L5.91847 9.707C5.73094 9.89447 5.47663 9.99979 5.21147 9.99979C4.9463 9.99979 4.69199 9.89447 4.50447 9.707L0.504467 5.707C0.322309 5.5184 0.221514 5.2658 0.223793 5.0036C0.226071 4.7414 0.33124 4.49059 0.516648 4.30518C0.702056 4.11977 0.952869 4.0146 1.21507 4.01233C1.47726 4.01005 1.72986 4.11084 1.91847 4.293L5.21147 7.586L12.5045 0.293C12.692 0.105529 12.9463 0.000213623 13.2115 0.000213623C13.4766 0.000213623 13.7309 0.105529 13.9185 0.293Z" fill="#0D0D0D"/>
</svg>
