<svg width="7" height="8" viewBox="0 0 7 8" fill="none" xmlns="http://www.w3.org/2000/svg">
<path fill-rule="evenodd" clip-rule="evenodd" d="M0.17062 0.928085C0.279902 0.818727 0.428099 0.757293 0.582622 0.757293C0.737146 0.757293 0.885343 0.818727 0.994624 0.928085L3.49636 3.43233L5.99809 0.928085C6.05185 0.872371 6.11615 0.827931 6.18725 0.797359C6.25834 0.766787 6.33481 0.750695 6.41219 0.750022C6.48957 0.749349 6.5663 0.764108 6.63792 0.793439C6.70954 0.822769 6.7746 0.866084 6.82932 0.920854C6.88403 0.975625 6.9273 1.04076 6.9566 1.11244C6.98591 1.18413 7.00065 1.26095 6.99998 1.3384C6.99931 1.41586 6.98323 1.4924 6.95269 1.56357C6.92215 1.63474 6.87775 1.69911 6.82209 1.75292L4.32036 4.25717L6.82209 6.76142C6.92825 6.87144 6.98698 7.01879 6.98566 7.17173C6.98433 7.32468 6.92304 7.47099 6.81499 7.57915C6.70695 7.6873 6.56079 7.74865 6.40799 7.74998C6.2552 7.75131 6.108 7.69251 5.99809 7.58625L3.49636 5.082L0.994624 7.58625C0.884717 7.69251 0.737514 7.75131 0.58472 7.74998C0.431925 7.74865 0.285765 7.6873 0.177719 7.57915C0.0696731 7.47099 0.00838605 7.32468 0.00705831 7.17173C0.00573057 7.01879 0.0644684 6.87144 0.17062 6.76142L2.67235 4.25717L0.17062 1.75292C0.0613723 1.64353 0 1.49518 0 1.3405C0 1.18582 0.0613723 1.03748 0.17062 0.928085Z" fill="#F2F0EB"/>
</svg>
