<svg width="14" height="13" viewBox="0 0 14 13" fill="none" xmlns="http://www.w3.org/2000/svg">
<path fill-rule="evenodd" clip-rule="evenodd" d="M2.38498 1.08281C2.2467 0.949252 2.0615 0.875352 1.86926 0.877023C1.67702 0.878693 1.49313 0.955801 1.3572 1.09174C1.22126 1.22767 1.14415 1.41156 1.14248 1.6038C1.14081 1.79604 1.21471 1.98124 1.34827 2.11952L11.6127 12.384C11.751 12.5175 11.9362 12.5914 12.1284 12.5898C12.3207 12.5881 12.5046 12.511 12.6405 12.375C12.7764 12.2391 12.8535 12.0552 12.8552 11.863C12.8569 11.6707 12.783 11.4855 12.6494 11.3473L11.5695 10.2673C12.7114 9.35677 13.5558 8.12637 13.9948 6.73339C13.0607 3.7589 10.282 1.60116 6.99885 1.60116C5.84955 1.5996 4.71611 1.8694 3.69076 2.38859L2.38571 1.08281H2.38498ZM5.50904 4.20613L6.61907 5.31689C6.86768 5.25087 7.12927 5.25131 7.37766 5.31816C7.62605 5.38501 7.85252 5.51594 8.03441 5.69783C8.2163 5.87971 8.34722 6.10619 8.41408 6.35458C8.48093 6.60297 8.48137 6.86456 8.41534 7.11317L9.52537 8.2232C9.85602 7.66307 9.99108 7.00891 9.9093 6.36363C9.82752 5.71835 9.53354 5.11857 9.07361 4.65863C8.61367 4.1987 8.01389 3.90472 7.36861 3.82294C6.72333 3.74116 6.06917 3.87621 5.50904 4.20687V4.20613Z" fill="#0D0D0D"/>
<path d="M8.7981 11.6435L6.8156 9.66023C6.10272 9.61556 5.43065 9.31227 4.92551 8.80727C4.42038 8.30227 4.1169 7.63028 4.07205 6.91742L1.3791 4.22446C0.759722 4.96205 0.292057 5.81466 0.00292969 6.73339C0.936995 9.70788 3.71646 11.8656 6.99889 11.8656C7.61989 11.8656 8.22256 11.7886 8.7981 11.6435Z" fill="#0D0D0D"/>
</svg>
