<svg width="13" height="13" viewBox="0 0 13 13" fill="none" xmlns="http://www.w3.org/2000/svg">
<path fill-rule="evenodd" clip-rule="evenodd" d="M0.300111 1.07068C0.487639 0.883206 0.741946 0.77789 1.00711 0.77789C1.27227 0.77789 1.52658 0.883206 1.71411 1.07068L6.00711 5.36368L10.3001 1.07068C10.3924 0.975167 10.5027 0.898984 10.6247 0.846575C10.7467 0.794166 10.8779 0.76658 11.0107 0.765426C11.1435 0.764272 11.2752 0.789574 11.3981 0.839855C11.521 0.890136 11.6326 0.964389 11.7265 1.05828C11.8204 1.15217 11.8947 1.26383 11.9449 1.38672C11.9952 1.50962 12.0205 1.6413 12.0194 1.77408C12.0182 1.90686 11.9906 2.03808 11.9382 2.16008C11.8858 2.28209 11.8096 2.39243 11.7141 2.48468L7.42111 6.77768L11.7141 11.0707C11.8963 11.2593 11.9971 11.5119 11.9948 11.7741C11.9925 12.0363 11.8873 12.2871 11.7019 12.4725C11.5165 12.6579 11.2657 12.7631 11.0035 12.7654C10.7413 12.7676 10.4887 12.6668 10.3001 12.4847L6.00711 8.19168L1.71411 12.4847C1.52551 12.6668 1.27291 12.7676 1.01071 12.7654C0.748513 12.7631 0.4977 12.6579 0.312292 12.4725C0.126884 12.2871 0.0217148 12.0363 0.0194364 11.7741C0.0171579 11.5119 0.117953 11.2593 0.300111 11.0707L4.59311 6.77768L0.300111 2.48468C0.11264 2.29715 0.00732422 2.04284 0.00732422 1.77768C0.00732422 1.51251 0.11264 1.2582 0.300111 1.07068V1.07068Z" fill="#0D0D0D"/>
</svg>
