<svg width="71" height="15" viewBox="0 0 71 15" fill="none" xmlns="http://www.w3.org/2000/svg">
<path d="M1.92648 14.0628L0.609901 12.7462L3.62301 9.8215L0.609901 6.89675L1.92648 5.58017L6.17665 9.8215L1.92648 14.0628Z" fill="#0D0D0D"/>
<path d="M10.4361 14.0628V1.33884H12.5656V12.0659H18.1853V14.0628H10.4361Z" fill="#0D0D0D"/>
<path d="M19.2501 2.93416V0.981381H21.3796V2.93416H19.2501ZM19.2501 13.9263V4.38328H21.3796V13.9263H19.2501Z" fill="#0D0D0D"/>
<path d="M29.0626 13.9263V9.3315C29.0626 9.03107 29.042 8.69824 29.0007 8.33302C28.9595 7.96779 28.8623 7.61729 28.7091 7.28152C28.5619 6.93986 28.338 6.66005 28.0376 6.44209C27.743 6.22413 27.3425 6.11516 26.8359 6.11516C26.5649 6.11516 26.2969 6.15934 26.0318 6.2477C25.7667 6.33606 25.5252 6.48922 25.3072 6.70718C25.0952 6.91924 24.9243 7.21378 24.7947 7.59079C24.6651 7.9619 24.6003 8.43905 24.6003 9.02223L23.3368 8.48323C23.3368 7.67031 23.4929 6.93397 23.8051 6.27421C24.1232 5.61444 24.5886 5.09017 25.2012 4.70138C25.8138 4.3067 26.5678 4.10936 27.4632 4.10936C28.1701 4.10936 28.7533 4.22718 29.2128 4.46281C29.6723 4.69843 30.0375 4.99886 30.3085 5.36409C30.5794 5.72931 30.7797 6.1181 30.9093 6.53045C31.0389 6.94281 31.1214 7.33454 31.1567 7.70565C31.198 8.07088 31.2186 8.36836 31.2186 8.5981V13.9263H29.0626ZM22.4443 13.9263V4.38328H24.3441V7.34337H24.6003V13.9263H22.4443Z" fill="#0D0D0D"/>
<path d="M32.2833 13.9263L32.301 1.20229H34.457V8.97805L37.9473 4.38328H40.6069L36.9046 9.15478L40.925 13.9263H38.1063L34.457 9.3315V13.9263H32.2833Z" fill="#0D0D0D"/>
<path d="M48.608 13.9263V9.3315C48.608 9.03107 48.5874 8.69824 48.5462 8.33302C48.5049 7.96779 48.4077 7.6173 48.2546 7.28152C48.1073 6.93986 47.8835 6.66005 47.583 6.44209C47.2885 6.22414 46.8879 6.11516 46.3813 6.11516C46.1103 6.11516 45.8423 6.15934 45.5772 6.2477C45.3122 6.33606 45.0706 6.48922 44.8527 6.70718C44.6406 6.91924 44.4698 7.21378 44.3402 7.59079C44.2106 7.9619 44.1458 8.43905 44.1458 9.02224L42.8822 8.48323C42.8822 7.67031 43.0383 6.93397 43.3505 6.27421C43.6686 5.61445 44.134 5.09017 44.7466 4.70138C45.3593 4.3067 46.1133 4.10936 47.0087 4.10936C47.7156 4.10936 48.2988 4.22718 48.7582 4.46281C49.2177 4.69844 49.5829 4.99886 49.8539 5.36409C50.1249 5.72931 50.3252 6.1181 50.4548 6.53045C50.5844 6.94281 50.6668 7.33454 50.7022 7.70566C50.7434 8.07088 50.764 8.36836 50.764 8.5981V13.9263H48.608ZM41.9898 13.9263V1.20229H43.8895V7.90005H44.1458V13.9263H41.9898Z" fill="#0D0D0D"/>
<path d="M55.5841 14.1954C54.8772 14.1954 54.294 14.0776 53.8346 13.8419C53.3751 13.6063 53.0099 13.3059 52.7389 12.9406C52.4679 12.5754 52.2676 12.1866 52.138 11.7743C52.0084 11.3619 51.923 10.9731 51.8818 10.6079C51.8464 10.2368 51.8288 9.93637 51.8288 9.70664V4.37847H53.9848V8.97324C53.9848 9.26778 54.0054 9.6006 54.0466 9.97172C54.0879 10.3369 54.1821 10.6904 54.3294 11.0321C54.4825 11.3678 54.7064 11.6447 55.0009 11.8626C55.3014 12.0806 55.7049 12.1896 56.2115 12.1896C56.4825 12.1896 56.7505 12.1454 57.0156 12.057C57.2806 11.9687 57.5192 11.8185 57.7313 11.6064C57.9492 11.3884 58.123 11.091 58.2526 10.714C58.3822 10.3369 58.447 9.8598 58.447 9.2825L59.7106 9.82151C59.7106 10.6344 59.5515 11.3708 59.2334 12.0305C58.9212 12.6903 58.4588 13.2175 57.8462 13.6122C57.2335 14.001 56.4795 14.1954 55.5841 14.1954ZM58.7033 13.9215V10.9614H58.447V4.37847H60.5853V13.9215H58.7033Z" fill="#0D0D0D"/>
<path d="M66.2537 14.1954C65.323 14.1954 64.5424 13.9745 63.9121 13.5327C63.2818 13.0909 62.8076 12.49 62.4895 11.7301C62.1714 10.9643 62.0124 10.1072 62.0124 9.1588C62.0124 8.19861 62.1714 7.33856 62.4895 6.57866C62.8076 5.81875 63.273 5.22084 63.8856 4.78493C64.5042 4.34312 65.267 4.12222 66.1742 4.12222C67.0755 4.12222 67.856 4.34312 68.5157 4.78493C69.1814 5.22084 69.6968 5.81875 70.0621 6.57866C70.4273 7.33267 70.6099 8.19272 70.6099 9.1588C70.6099 10.1131 70.4302 10.9702 70.0709 11.7301C69.7116 12.49 69.205 13.0909 68.5511 13.5327C67.8972 13.9745 67.1314 14.1954 66.2537 14.1954ZM61.6501 13.9303V1.20631H63.7973V7.23253H63.5322V13.9303H61.6501ZM65.9268 12.2868C66.4805 12.2868 66.937 12.1483 67.2964 11.8715C67.6557 11.5946 67.9208 11.2206 68.0916 10.7493C68.2683 10.2721 68.3567 9.74198 68.3567 9.1588C68.3567 8.58151 68.2683 8.05723 68.0916 7.58597C67.9149 7.10882 67.641 6.73182 67.2699 6.45495C66.8987 6.1722 66.4275 6.03082 65.8561 6.03082C65.3141 6.03082 64.8723 6.16336 64.5307 6.42844C64.189 6.68764 63.9357 7.05286 63.7708 7.52412C63.6117 7.98949 63.5322 8.53438 63.5322 9.1588C63.5322 9.77733 63.6117 10.3222 63.7708 10.7935C63.9357 11.2647 64.1919 11.6329 64.5395 11.898C64.8929 12.1572 65.3554 12.2868 65.9268 12.2868Z" fill="#0D0D0D"/>
</svg>
