<svg width="14" height="11" viewBox="0 0 14 11" fill="none" xmlns="http://www.w3.org/2000/svg">
<path d="M7.00003 7.31255C7.38916 7.31255 7.76235 7.15797 8.0375 6.88282C8.31265 6.60767 8.46723 6.23448 8.46723 5.84535C8.46723 5.45623 8.31265 5.08304 8.0375 4.80789C7.76235 4.53274 7.38916 4.37816 7.00003 4.37816C6.61091 4.37816 6.23772 4.53274 5.96257 4.80789C5.68742 5.08304 5.53284 5.45623 5.53284 5.84535C5.53284 6.23448 5.68742 6.60767 5.96257 6.88282C6.23772 7.15797 6.61091 7.31255 7.00003 7.31255Z" fill="#0D0D0D"/>
<path fill-rule="evenodd" clip-rule="evenodd" d="M0 5.84535C0.934605 2.86914 3.71494 0.710159 7 0.710159C10.2851 0.710159 13.0654 2.86914 14 5.84535C13.0654 8.82156 10.2851 10.9805 7 10.9805C3.71494 10.9805 0.934605 8.82156 0 5.84535ZM9.93439 5.84535C9.93439 6.6236 9.62524 7.36998 9.07493 7.92028C8.52462 8.47059 7.77825 8.77975 7 8.77975C6.22175 8.77975 5.47537 8.47059 4.92507 7.92028C4.37476 7.36998 4.0656 6.6236 4.0656 5.84535C4.0656 5.0671 4.37476 4.32073 4.92507 3.77042C5.47537 3.22011 6.22175 2.91096 7 2.91096C7.77825 2.91096 8.52462 3.22011 9.07493 3.77042C9.62524 4.32073 9.93439 5.0671 9.93439 5.84535Z" fill="#0D0D0D"/>
</svg>
