<svg width="416" height="477" viewBox="0 0 416 477" fill="none" xmlns="http://www.w3.org/2000/svg">
<path d="M161.495 31.1689L155.925 30.6334L160.37 15.8524L161.548 16.2273L157.532 29.5623L161.602 29.9372L161.495 31.1689Z" fill="#0D0D0D"/>
<path d="M167.011 36.685C166.743 36.7386 166.475 36.7386 166.207 36.7386L166.154 35.5068C168.51 35.3997 170.063 34.7035 170.867 33.5253C171.991 31.8116 171.081 29.4552 171.081 29.4016L172.206 28.9732C172.259 29.0803 173.33 31.9187 171.884 34.168C170.974 35.5604 169.367 36.4173 167.011 36.685Z" fill="#0D0D0D"/>
<path d="M180.346 33.9538C179.221 34.7036 177.722 33.7396 177.936 32.4007C178.15 31.0083 178.204 29.1339 177.936 26.4562C176.865 17.0306 153.783 30.5263 147.303 14.5136C141.519 0.268104 168.564 -0.749428 175.847 0.482323C189.504 2.73161 168.671 5.19511 173.116 6.31975C200.161 13.5496 187.736 28.9197 180.346 33.9538Z" fill="#0D0D0D"/>
<path d="M191.431 28.9197C190.735 27.6344 189.611 26.6168 188.218 26.1884C187.79 26.0278 187.361 25.9742 186.879 25.9206C186.612 23.1894 185.808 20.5652 184.523 18.0482C181.792 12.6927 177.079 8.67613 171.349 6.85529C165.618 4.98088 159.513 5.51643 154.104 8.2477C148.749 10.979 144.786 15.6918 142.911 21.4221C139.751 31.169 143.608 41.505 151.641 47.0211L150.462 59.9812L151.694 60.0883L152.819 47.7708C154.265 48.6277 155.818 49.3239 157.478 49.8594C159.781 50.6092 162.084 50.9305 164.387 50.9305C164.44 50.9305 164.494 50.9305 164.547 50.9305L163.905 58.9637L165.136 59.0708L165.833 50.877C174.294 50.3414 182.06 45.0396 185.38 36.8457C185.755 36.9528 186.13 36.9528 186.558 36.9528C188.861 36.9528 191.057 35.4533 191.806 33.1505C192.235 31.7045 192.074 30.205 191.431 28.9197ZM190.575 32.722C190.2 33.7931 189.45 34.7036 188.432 35.2391C187.576 35.6675 186.665 35.8282 185.755 35.6675C185.54 35.614 185.38 35.614 185.166 35.5069C184.951 35.4533 184.791 35.3462 184.577 35.2927C184.416 35.6675 184.309 36.0424 184.148 36.4709C179.971 46.6997 168.51 52.1623 157.853 48.6813C146.66 45.0396 140.501 32.9898 144.089 21.797C145.857 16.388 149.605 11.943 154.693 9.37234C157.746 7.81926 161.066 7.01595 164.387 7.01595C166.582 7.01595 168.831 7.33728 170.974 8.03348C176.383 9.80078 180.828 13.5496 183.398 18.6372C184.577 20.9936 185.326 23.4571 185.648 26.0278C185.701 26.4562 185.755 26.8311 185.755 27.2595C186.022 27.2059 186.237 27.2059 186.504 27.2059C186.665 27.2059 186.826 27.2059 186.987 27.2595C187.254 27.3131 187.575 27.3666 187.843 27.4202C188.914 27.795 189.825 28.5448 190.36 29.5623C190.842 30.4728 190.949 31.651 190.575 32.722Z" fill="#0D0D0D"/>
<path d="M185.326 29.9374C183.666 31.2762 183.773 33.9004 183.773 34.0075L185.005 33.9539C185.005 33.9539 184.952 31.8653 186.076 30.9013C186.772 30.3658 187.736 30.2587 189.075 30.6336L189.397 29.4554C187.683 28.9734 186.29 29.134 185.326 29.9374Z" fill="#0D0D0D"/>
<path d="M74.1475 332.626L74.0939 332.68C73.8261 332.948 73.4513 333.162 73.0764 333.269C76.5574 337.125 77.3607 343.016 74.7901 347.729L74.683 347.889C74.3081 348.532 73.9332 349.121 73.4512 349.657C72.3266 351.049 71.2556 352.388 70.2916 353.673C70.7736 353.62 71.202 353.727 71.6304 353.941C72.4873 352.816 73.4513 351.638 74.4152 350.406C74.8972 349.817 75.3256 349.228 75.7005 348.586L75.8077 348.425C78.6996 343.391 77.9498 336.911 74.1475 332.626Z" fill="#0D0D0D"/>
<path d="M140.501 307.831C135.307 305.314 129.951 303.171 124.007 301.565C123.739 301.779 123.417 301.94 123.096 302.047C122.882 302.1 122.668 302.1 122.454 302.1C122.347 302.207 122.186 302.315 122.025 302.368C121.971 302.422 121.918 302.422 121.864 302.422C128.345 304.082 134.557 306.224 140.019 308.902C141.198 309.491 142.376 310.08 143.5 310.723C143.661 310.348 143.982 310.026 144.304 309.759C143.072 309.116 141.787 308.42 140.501 307.831Z" fill="#0D0D0D"/>
<path d="M114.153 315.65C114.045 314.15 113.51 313.079 112.6 312.436C111.1 311.312 108.958 311.794 108.904 311.794L108.636 310.616C108.744 310.616 111.314 310.026 113.296 311.472C114.474 312.329 115.17 313.722 115.331 315.543L114.153 315.65Z" fill="#0D0D0D"/>
<path d="M160.102 423.829C156.032 423.776 144.839 422.705 135.092 414.297C125.024 405.567 119.24 391.75 118.008 373.113L119.24 373.006C120.472 391.268 126.095 404.871 135.896 413.333C146.499 422.544 158.817 422.651 161.227 422.598C166.422 404.496 163.208 389.287 151.801 377.344C143.233 368.347 132.95 364.759 132.843 364.705L133.218 363.527C133.325 363.581 143.875 367.276 152.658 376.487C160.799 385.003 169.046 399.998 162.244 423.347L162.137 423.776L161.709 423.829C161.655 423.776 161.066 423.829 160.102 423.829Z" fill="#0D0D0D"/>
<path d="M160.424 416.118L159.192 415.957C161.548 398.659 153.89 386.716 147.035 379.701C139.591 372.096 131.451 368.561 131.397 368.508L131.879 367.383C131.986 367.437 140.287 371.025 147.892 378.79C154.961 386.02 162.834 398.284 160.424 416.118Z" fill="#0D0D0D"/>
<path d="M156.139 419.117L154.961 418.849C158.549 403.747 151.534 390.412 151.426 390.304L152.497 389.715C152.551 389.822 159.835 403.586 156.139 419.117Z" fill="#0D0D0D"/>
<path d="M145.803 413.493C130.005 408.192 124.221 384.467 124.007 383.449L125.185 383.182C125.238 383.396 131.076 407.281 146.178 412.369L145.803 413.493Z" fill="#0D0D0D"/>
<path d="M97.4436 372.203L138.52 346.015L132.575 358.118L132.415 358.225L113.51 370.222H113.349L97.4436 372.203ZM135.467 349.389L102.638 370.329L113.081 369.043L131.611 357.315L135.467 349.389Z" fill="#0D0D0D"/>
<path d="M271.924 380.022C271.87 380.076 271.817 380.129 271.71 380.183C271.495 380.29 271.335 380.397 271.12 380.558C271.013 380.611 270.906 380.665 270.799 380.665C274.441 384.574 275.191 390.626 272.513 395.392L272.406 395.553C272.031 396.142 271.602 396.785 271.12 397.32C269.942 398.659 268.871 399.998 267.907 401.283C268.389 401.283 268.818 401.39 269.193 401.604C270.103 400.48 271.013 399.302 272.031 398.123C272.513 397.534 272.941 396.945 273.316 396.356L273.423 396.195C276.53 391.001 275.78 384.36 271.924 380.022Z" fill="#0D0D0D"/>
<path d="M338.867 356.565C333.672 353.941 328.316 351.692 322.318 349.978C321.836 350.353 321.354 350.674 320.926 351.103C327.138 352.816 333.083 355.012 338.331 357.69C339.509 358.279 340.687 358.922 341.812 359.564C342.026 359.189 342.294 358.868 342.615 358.6C341.384 357.904 340.152 357.208 338.867 356.565Z" fill="#0D0D0D"/>
<path d="M312.411 363.956C312.304 362.456 311.822 361.385 310.911 360.743C309.412 359.618 307.27 359.993 307.216 360.046L306.948 358.868C307.056 358.868 309.68 358.333 311.608 359.832C312.786 360.743 313.428 362.081 313.589 363.956H312.411Z" fill="#0D0D0D"/>
<path d="M357.932 472.832C353.862 472.671 342.723 471.493 333.083 462.871C323.175 453.981 317.659 440.057 316.695 421.42L317.927 421.366C318.891 439.682 324.246 453.338 333.94 461.96C344.383 471.332 356.7 471.654 359.11 471.654C364.573 453.659 361.681 438.396 350.434 426.24C341.973 417.135 331.797 413.333 331.69 413.279L332.119 412.101C332.226 412.155 342.723 416.011 351.345 425.383C359.325 434.005 367.358 449.161 360.128 472.403L360.021 472.832H359.592C359.485 472.885 358.95 472.885 357.932 472.832Z" fill="#0D0D0D"/>
<path d="M358.414 465.174L357.182 465.013C359.807 447.768 352.362 435.665 345.615 428.596C338.278 420.884 330.244 417.189 330.137 417.135L330.619 416.011C330.726 416.064 338.974 419.813 346.418 427.685C353.433 434.969 361.092 447.393 358.414 465.174Z" fill="#0D0D0D"/>
<path d="M354.023 468.119L352.844 467.798C356.7 452.749 349.899 439.307 349.792 439.2L350.863 438.611C350.97 438.771 357.986 452.642 354.023 468.119Z" fill="#0D0D0D"/>
<path d="M343.847 462.335C328.156 456.765 322.747 432.934 322.533 431.916L323.711 431.648C323.764 431.916 329.173 455.855 344.222 461.157L343.847 462.335Z" fill="#0D0D0D"/>
<path d="M294.738 420.241L336.243 394.696L330.137 406.746L329.977 406.853L310.911 418.528H310.751L294.738 420.241ZM333.19 398.016L300.04 418.421L310.536 417.296L329.227 405.889L333.19 398.016Z" fill="#0D0D0D"/>
<path d="M333.297 343.284C332.172 342.32 222.118 246.725 221.315 225.196C220.994 216.895 226.189 209.344 231.705 201.365C240.541 188.565 249.699 175.337 236.31 157.664L235.346 158.414C248.199 175.391 239.309 188.244 230.74 200.668C225.117 208.809 219.815 216.521 220.137 225.25C220.94 246.725 321.944 335.036 331.905 343.659L263.516 384.842C257.089 377.719 163.155 273.074 158.763 252.777C152.016 221.715 158.656 199.008 158.71 198.741L157.532 198.366C157.478 198.526 155.015 206.934 154.586 220.43C149.231 221.019 113.671 224.875 106.173 229.213C104.031 230.445 104.084 234.622 106.334 242.387C108.048 248.225 110.993 255.99 115.063 265.469C121.329 279.983 128.505 294.228 129.951 297.066L68.8992 334.608C60.7589 319.345 48.9769 292.139 40.6225 265.202C33.7675 242.923 26.8055 212.986 32.6429 196.491C34.4638 191.35 37.5164 187.869 41.6401 186.155C72.059 173.57 131.665 168.857 132.254 168.804L132.147 167.572C131.558 167.625 71.7375 172.338 41.158 184.977C36.6594 186.851 33.3927 190.547 31.4647 196.063C25.4666 212.825 32.4823 243.084 39.3908 265.523C47.8524 292.889 59.9021 320.47 68.0424 335.679L68.3636 336.268L131.022 297.763L131.504 297.441L131.237 296.959C131.129 296.799 123.096 281.054 116.134 264.934C103.602 235.907 105.37 230.98 106.709 230.23C113.831 226.107 148.802 222.251 154.479 221.662C154.265 230.391 154.908 241.048 157.478 252.991C162.084 274.199 258.749 381.415 262.873 385.967L263.194 386.342L333.886 343.766L333.297 343.284Z" fill="#0D0D0D"/>
<path d="M68.0958 120.926C50.4764 114.66 38.1054 100.147 30.8755 89.1147C22.1997 75.8868 17.0049 61.7484 15.7196 53.5546C14.3272 44.7182 15.5055 43.7006 15.7732 43.54C16.2552 43.3257 17.2727 44.2362 17.8618 44.9324L18.3973 45.6286C21.9855 58.0532 30.9291 71.0134 30.9826 71.174L31.8932 70.4778C31.786 70.3707 22.7354 57.1428 19.3079 44.7717C18.5581 42.0404 18.1297 39.8983 17.969 38.2381C17.8084 34.3286 18.6652 33.0433 19.3079 32.6684C19.5756 32.5078 19.8969 32.4007 20.2717 32.4007H20.3254C20.7538 32.4007 21.1286 32.5078 21.5035 32.6149C22.6817 32.9898 23.86 33.8466 24.5026 34.3822C24.4491 35.239 24.5026 36.203 24.7168 37.2741C25.7879 43.54 30.6078 53.6082 39.6585 68.7641L40.6224 68.1214C33.4997 56.2323 24.6098 40.2731 25.7344 33.5788C26.2164 31.9722 26.9661 31.0618 27.8766 30.8476C27.9301 30.8476 27.9836 30.8476 28.0371 30.8476C29.4831 30.794 31.0897 31.9722 32.0537 32.8291C32.3215 33.0433 32.5357 33.2575 32.7499 33.5253C32.8035 33.5788 32.8035 33.5788 32.8035 33.5788C33.6604 34.4357 34.3566 35.239 34.785 35.8281C36.8201 44.8788 48.0665 64.6939 48.5485 65.5508L49.5125 64.9082C49.4054 64.6939 38.8552 46.1641 36.1775 36.7921L35.8561 35.4533C35.749 34.9177 35.6419 34.4357 35.5884 34.0073C35.4812 32.8291 35.5884 31.758 36.1239 31.3831C36.5523 31.1153 37.9448 30.9011 41.9078 34.6499C44.9068 37.4348 48.12 43.3257 51.8688 50.1271C57.5991 60.5703 64.7754 73.5304 74.8972 82.8489C81.5915 88.9541 89.7318 90.7214 98.4077 87.2939C98.8896 86.7583 98.729 86.4906 98.6754 86.2228C98.6754 86.1157 98.6218 86.0086 98.6218 85.9015C90.3209 89.2218 81.9664 87.7759 75.5934 81.9384C65.5788 72.7807 58.5097 59.874 52.7794 49.5381C48.977 42.6295 45.7101 36.685 42.5504 33.7395C41.5864 32.8291 40.7296 32.1329 39.9263 31.5438C39.605 31.276 36.8737 28.9732 35.2135 30.0978C34.4102 30.6334 34.0888 31.8116 34.2495 33.6324C33.9817 33.3646 33.7139 33.0969 33.4462 32.7755C33.3926 32.722 32.9107 32.1864 32.1609 31.5973C30.715 30.4191 29.0012 29.4552 27.4481 29.7229C26.5912 29.83 25.8415 30.2585 25.3059 31.0618C24.8775 31.5973 24.6097 32.2935 24.449 33.0433C24.0206 32.722 23.485 32.3471 22.8424 32.0258C22.7888 31.9722 22.1998 31.6509 21.3964 31.4367C21.3429 31.4367 21.2894 31.4367 21.2894 31.3831C21.2358 31.3831 21.1822 31.3296 21.0751 31.3296C20.968 31.3296 20.8608 31.276 20.8073 31.276H20.7538C20.6467 31.276 20.5395 31.2225 20.4324 31.2225C20.3789 31.2225 20.3253 31.2225 20.2717 31.2225C20.2182 31.2225 20.1647 31.2225 20.0576 31.2225C19.3614 31.2225 18.6116 31.3831 18.0225 31.9187C16.7372 32.9897 16.3088 35.1319 16.6302 38.4523C16.6837 39.7376 16.8444 41.2371 17.1657 42.8973V42.9509C16.523 42.4689 15.7733 42.1475 15.0235 42.5224C14.006 43.0044 12.8813 44.6646 14.3273 53.8224C14.3273 53.9295 14.3808 54.0366 14.3808 54.1437C15.6661 61.9091 20.4325 75.7797 29.6974 89.8645C37.0343 101.057 49.5661 115.785 67.5068 122.158C76.2362 125.264 84.6977 126.656 92.6238 126.281C95.5157 126.174 98.2469 125.799 100.871 125.21C100.818 124.728 100.978 124.246 101.246 123.818C91.4992 126.121 80.092 125.21 68.0958 120.926Z" fill="#0D0D0D"/>
<path d="M208.944 118.998C208.301 115.731 207.284 112.572 205.731 109.68C205.731 109.68 205.57 104.11 201.179 97.4158C199.036 98.112 196.894 98.8617 194.752 99.558C195.288 101.7 195.93 103.842 196.091 105.984C196.091 106.306 196.091 106.574 195.984 106.841C196.359 108.02 196.466 109.198 196.519 110.483C196.573 111.608 196.84 112.732 197.001 113.911C197.269 114.232 197.43 114.553 197.537 114.982C197.59 115.249 197.59 115.517 197.644 115.731C197.644 115.946 197.644 116.16 197.59 116.374C197.751 117.177 197.858 117.981 197.965 118.891C198.126 120.658 198.501 122.319 198.769 124.086C199.036 124.514 199.197 124.996 199.251 125.639C199.304 128.531 200.214 131.369 200.536 134.261C200.536 134.422 200.536 134.583 200.536 134.743C200.536 134.797 200.589 134.85 200.589 134.957C200.911 136.35 201.178 137.689 201.393 139.081C201.821 138.867 202.25 138.706 202.732 138.599C203.267 137.956 203.803 137.26 204.285 136.618C205.57 134.797 206.266 132.387 207.391 130.459C207.551 129.923 207.712 129.334 207.819 128.745C208.462 125.96 208.622 123.443 208.515 120.605C208.515 119.909 208.676 119.427 208.944 118.998Z" fill="#0D0D0D"/>
<path d="M248.521 112.732C226.831 53.0726 164.119 56.4465 164.119 56.4465C159.513 68.6569 151.909 58.3209 151.909 58.3209C111.957 64.5867 87.7502 87.508 87.7502 87.508L99.4251 126.228L118.437 120.39L126.417 168.054L142.804 171.106C142.804 171.106 142.697 169.071 147.999 165.858C153.301 162.645 175.312 154.612 175.312 154.612C175.312 154.612 199.893 143.312 203.642 136.832C204.927 134.582 204.338 126.335 202.839 116.267L208.141 117.231L248.521 112.732Z" fill="#0D0D0D"/>
<path d="M245.414 113.107L244.183 113.268C246.967 126.174 244.45 140.58 236.846 155.147C227.741 172.552 211.407 182.888 199.304 188.512C184.844 195.259 170.01 198.205 161.762 198.098C152.819 198.044 152.016 196.598 151.909 196.331C151.748 195.795 152.819 194.885 153.622 194.403L154.425 193.921C167.278 192.368 181.524 185.298 181.685 185.245L181.149 184.174C180.988 184.227 166.475 191.404 153.729 192.796C150.891 193.117 148.695 193.171 147.035 193.01C143.179 192.528 142.055 191.404 141.733 190.6C141.626 190.279 141.572 189.904 141.626 189.529V189.476C141.733 189.047 141.894 188.619 142.054 188.297C142.643 187.173 143.661 186.048 144.304 185.459C145.161 185.673 146.124 185.78 147.196 185.78C153.515 185.78 164.28 182.514 180.774 175.659L180.292 174.534C167.386 179.889 150.195 186.369 143.768 184.067C142.269 183.263 141.465 182.353 141.412 181.335C141.412 181.282 141.412 181.228 141.412 181.121C141.572 179.622 143.072 178.122 144.036 177.265C144.304 177.051 144.571 176.837 144.786 176.623C144.839 176.569 144.893 176.569 144.893 176.569C145.857 175.819 146.821 175.23 147.463 174.909C156.728 174.373 178.15 166.072 179.06 165.697L178.632 164.573C178.418 164.68 158.389 172.445 148.695 173.57L147.303 173.677C146.714 173.731 146.232 173.731 145.803 173.677C144.625 173.57 143.554 173.249 143.34 172.66C143.126 172.178 143.179 170.678 147.517 167.143C150.784 164.519 157.103 162.163 164.44 159.432C175.687 155.254 189.664 150.06 200.536 141.062C207.712 135.118 210.765 126.871 208.837 117.177L206.159 105.824L204.981 106.091L207.605 117.338C209.212 126.335 206.427 134.582 199.786 140.045C189.075 148.935 175.205 154.076 164.065 158.2C156.621 160.985 150.195 163.341 146.767 166.126C145.75 166.983 144.893 167.733 144.196 168.482C143.875 168.75 141.198 171.267 141.947 173.141C142.322 174.105 143.447 174.641 145.268 174.802C144.946 175.016 144.625 175.23 144.304 175.498C144.25 175.551 143.661 175.98 142.911 176.623C141.465 177.908 140.234 179.568 140.287 181.228C140.234 182.139 140.555 182.996 141.251 183.745C141.733 184.281 142.322 184.709 143.072 185.031C142.697 185.405 142.215 185.941 141.787 186.53C141.733 186.584 141.305 187.173 140.93 187.976C140.93 188.03 140.876 188.083 140.876 188.083C140.823 188.137 140.823 188.19 140.769 188.297C140.715 188.404 140.716 188.512 140.662 188.565V188.619C140.609 188.726 140.608 188.833 140.555 188.94C140.555 188.994 140.555 189.047 140.501 189.101C140.501 189.154 140.448 189.261 140.448 189.315C140.341 190.065 140.394 190.814 140.769 191.564C141.626 193.117 143.661 193.974 146.981 194.188C148.267 194.349 149.766 194.456 151.48 194.403H151.534C150.998 194.992 150.516 195.741 150.73 196.545C151.052 197.669 152.498 199.169 161.762 199.276C161.87 199.276 161.977 199.276 162.084 199.276C169.956 199.276 184.416 196.759 199.893 189.529C212.157 183.799 228.759 173.302 238.024 155.576C242.522 146.953 245.307 138.331 246.271 129.977C246.807 124.086 246.592 118.57 245.414 113.107Z" fill="#0D0D0D"/>
<path d="M81.7991 401.692L81.1817 402.206L133.572 465.143L134.189 464.629L81.7991 401.692Z" fill="#0D0D0D"/>
<path d="M110.287 412.825L109.67 413.339L162.06 476.276L162.677 475.762L110.287 412.825Z" fill="#0D0D0D"/>
<path d="M146.84 283.805L146.223 284.319L198.613 347.255L199.23 346.741L146.84 283.805Z" fill="#0D0D0D"/>
<path d="M264.247 231.943L263.63 232.457L316.02 295.394L316.637 294.88L264.247 231.943Z" fill="#0D0D0D"/>
<path d="M262.96 141.144L262.343 141.658L314.733 204.594L315.35 204.08L262.96 141.144Z" fill="#0D0D0D"/>
<path d="M273.834 172.484L273.217 172.998L325.607 235.935L326.224 235.421L273.834 172.484Z" fill="#0D0D0D"/>
<path d="M222.688 50.3646L222.071 50.8786L274.461 113.815L275.078 113.301L222.688 50.3646Z" fill="#0D0D0D"/>
<path d="M363.61 345.924L362.993 346.438L415.383 409.374L416 408.86L363.61 345.924Z" fill="#0D0D0D"/>
<path d="M188.104 407.25L187.486 407.764L239.876 470.701L240.494 470.187L188.104 407.25Z" fill="#0D0D0D"/>
<path d="M7.25802 55.4827C5.06229 52.4301 4.2589 49.6453 4.90155 47.2353C5.65131 44.3434 8.222 43.1116 8.32911 43.1116L8.86465 44.2363C8.86465 44.2363 6.66882 45.2538 6.07972 47.6102C5.54418 49.6453 6.29394 52.0552 8.2219 54.7865L7.25802 55.4827Z" fill="#0D0D0D"/>
<path d="M2.331 55.4291C0.188824 51.5196 -0.346641 47.9314 0.670892 44.8789C2.00975 40.7552 5.65137 39.0414 5.81203 38.9879L6.34758 40.1125C6.29402 40.1125 3.02726 41.7191 1.84906 45.3073C0.938638 48.0386 1.47418 51.3054 3.45569 54.8935L2.331 55.4291Z" fill="#0D0D0D"/>
<path d="M45.1745 28.3305C45.1745 28.3305 44.9068 25.9205 42.9253 24.5817C41.2115 23.4035 38.6945 23.2964 35.4276 24.2604L35.1064 23.0822C38.7481 22.0111 41.5864 22.1717 43.6215 23.5641C46.085 25.2243 46.4063 28.0627 46.4063 28.1698L45.1745 28.3305L45.7637 28.2769L45.1745 28.3305Z" fill="#0D0D0D"/>
<path d="M49.8874 27.2595C49.8874 27.2059 49.459 23.6178 46.4599 21.3149C44.1571 19.5476 40.9438 19.0121 36.8736 19.6547L36.6595 18.423C41.0509 17.6732 44.5855 18.3159 47.2096 20.2974C50.6371 22.9216 51.0656 26.9381 51.1191 27.0988L49.8874 27.2595Z" fill="#0D0D0D"/>
<path d="M162.726 327.164L60.5447 392.768C60.5447 392.768 49.7802 373.542 73.6119 349.389L140.501 307.777C149.606 310.509 158.924 316.4 162.726 327.164Z" fill="#0D0D0D"/>
<path d="M360.77 376.273L257.517 440.217C257.517 440.217 247.075 420.831 271.281 397.052L338.813 356.565C347.917 359.404 357.129 365.455 360.77 376.273Z" fill="#0D0D0D"/>
</svg>
